# xmcd
#
# Track frame offsets:
#	150
#	20982
#	37620
#	55482
#	77225
#	96950
#	113655
#	133842
#	156187
#	174400
#	195947
#	208775
#	226112
#
# Disc length: 3279 seconds
#
# Revision: 5
# Processed by: cddbd v1.5.2PL0 Copyright (c) Steve Scherf et al.
# Submitted via: EasyCDDAExtractor 15.3.0.1
#
DISCID=a60ccd0d
DTITLE=Chayanne - Simplemente
DYEAR=2000
DGENRE=Latin
TTITLE0=Simplemente
TTITLE1=Las Horas Pasan
TTITLE2=Candela
TTITLE3=Yo Te Amo
TTITLE4=Hasta Que El Alma Resista
TTITLE5=Ay Mama
TTITLE6=Cuando Un Amor Se Va (A Duo Con Ruben Blades)
TTITLE7=Oye Mar (Cancao Do Mar)
TTITLE8=Mariana Mambo
TTITLE9=Quien Puso Mas
TTITLE10=Mi Cafetal
TTITLE11=Te Necesito (Aprender A Amar)
TTITLE12=Boom Boom (Bonus Track)
EXTD=YEAR: 2000 ID3G: 13
EXTT0=
EXTT1=
EXTT2=
EXTT3=
EXTT4=
EXTT5=
EXTT6=
EXTT7=
EXTT8=
EXTT9=
EXTT10=
EXTT11=
EXTT12=
PLAYORDER=
